<?xml version="1.0" encoding="UTF-8" standalone="no"?>
<!DOCTYPE svg PUBLIC "-//W3C//DTD SVG 1.1//EN"
 "http://www.w3.org/Graphics/SVG/1.1/DTD/svg11.dtd">
<!-- Generated by graphviz version 2.43.0 (0)
 -->
<!-- Title: G Pages: 1 -->
<svg width="732pt" height="1252pt"
 viewBox="0.00 0.00 731.87 1252.00" xmlns="http://www.w3.org/2000/svg" xmlns:xlink="http://www.w3.org/1999/xlink">
<g id="graph0" class="graph" transform="scale(1 1) rotate(0) translate(4 1248)">
<title>G</title>
<polygon fill="white" stroke="transparent" points="-4,4 -4,-1248 727.87,-1248 727.87,4 -4,4"/>
<g id="clust1" class="cluster">
<title>cluster_n0x55d22c6f24a0</title>
</g>
<g id="clust2" class="cluster">
<title>cluster_n0x55d22c6efcf0</title>
</g>
<g id="clust3" class="cluster">
<title>cluster_n0x55d22c6ef140</title>
</g>
<g id="clust4" class="cluster">
<title>cluster_n0x55d22c712f00</title>
</g>
<g id="clust5" class="cluster">
<title>cluster_n0x55d22c718de0</title>
</g>
<g id="clust6" class="cluster">
<title>cluster_n0x55d22c6f1c50</title>
</g>
<g id="clust7" class="cluster">
<title>cluster_n0x55d22c6f0b60</title>
</g>
<g id="clust8" class="cluster">
<title>cluster_n0x55d22c6f1150</title>
</g>
<!-- n0x55d22c6f24a0 -->
<g id="node1" class="node">
<title>n0x55d22c6f24a0</title>
<ellipse fill="none" stroke="black" cx="43" cy="-890" rx="27" ry="18"/>
<text text-anchor="middle" x="43" y="-886.3" font-family="Times,serif" font-size="14.00">{...}</text>
</g>
<!-- n0x55d22c6efcf0 -->
<g id="node2" class="node">
<title>n0x55d22c6efcf0</title>
<ellipse fill="none" stroke="black" cx="186.1" cy="-541" rx="27" ry="18"/>
<text text-anchor="middle" x="186.1" y="-537.3" font-family="Times,serif" font-size="14.00">[...]</text>
</g>
<!-- n0x55d22c6f24a0&#45;&gt;n0x55d22c6efcf0 -->
<g id="edge20" class="edge">
<title>n0x55d22c6f24a0&#45;&gt;n0x55d22c6efcf0</title>
<path fill="none" stroke="black" d="M45.7,-871.74C51.47,-818.74 74.39,-662.33 151,-563 152.4,-561.19 153.99,-559.48 155.71,-557.88"/>
<polygon fill="black" stroke="black" points="158.06,-560.48 163.79,-551.57 153.75,-554.97 158.06,-560.48"/>
<text text-anchor="middle" x="110.5" y="-681.8" font-family="Times,serif" font-size="14.00">grading</text>
</g>
<!-- n0x55d22c6ff600 -->
<g id="node22" class="node">
<title>n0x55d22c6ff600</title>
<ellipse fill="none" stroke="black" cx="186.1" cy="-836" rx="31.4" ry="18"/>
<text text-anchor="middle" x="186.1" y="-832.3" font-family="Times,serif" font-size="14.00">&quot;M1&quot;</text>
</g>
<!-- n0x55d22c6f24a0&#45;&gt;n0x55d22c6ff600 -->
<g id="edge21" class="edge">
<title>n0x55d22c6f24a0&#45;&gt;n0x55d22c6ff600</title>
<path fill="none" stroke="black" d="M65.82,-880.26C72.86,-877.2 80.73,-873.88 88,-871 108.2,-863.01 131.04,-854.74 149.49,-848.24"/>
<polygon fill="black" stroke="black" points="150.69,-851.53 158.97,-844.93 148.38,-844.93 150.69,-851.53"/>
<text text-anchor="middle" x="110.5" y="-874.8" font-family="Times,serif" font-size="14.00">level</text>
</g>
<!-- n0x55d22c6ff580 -->
<g id="node23" class="node">
<title>n0x55d22c6ff580</title>
<ellipse fill="none" stroke="black" cx="186.1" cy="-890" rx="35.19" ry="18"/>
<text text-anchor="middle" x="186.1" y="-886.3" font-family="Times,serif" font-size="14.00">&quot;C++&quot;</text>
</g>
<!-- n0x55d22c6f24a0&#45;&gt;n0x55d22c6ff580 -->
<g id="edge22" class="edge">
<title>n0x55d22c6f24a0&#45;&gt;n0x55d22c6ff580</title>
<path fill="none" stroke="black" d="M70.21,-890C89.91,-890 117.36,-890 140.49,-890"/>
<polygon fill="black" stroke="black" points="140.77,-893.5 150.77,-890 140.77,-886.5 140.77,-893.5"/>
<text text-anchor="middle" x="110.5" y="-893.8" font-family="Times,serif" font-size="14.00">name</text>
</g>
<!-- n0x55d22c6f1150 -->
<g id="node24" class="node">
<title>n0x55d22c6f1150</title>
<ellipse fill="none" stroke="black" cx="186.1" cy="-1023" rx="27" ry="18"/>
<text text-anchor="middle" x="186.1" y="-1019.3" font-family="Times,serif" font-size="14.00">[...]</text>
</g>
<!-- n0x55d22c6f24a0&#45;&gt;n0x55d22c6f1150 -->
<g id="edge28" class="edge">
<title>n0x55d22c6f24a0&#45;&gt;n0x55d22c6f1150</title>
<path fill="none" stroke="black" d="M57.17,-905.82C76.43,-928.42 114,-970.56 151,-1001 152.77,-1002.45 154.64,-1003.89 156.55,-1005.3"/>
<polygon fill="black" stroke="black" points="154.86,-1008.38 165.08,-1011.18 158.83,-1002.62 154.86,-1008.38"/>
<text text-anchor="middle" x="110.5" y="-987.8" font-family="Times,serif" font-size="14.00">teachers</text>
</g>
<!-- n0x55d22c70ec70 -->
<g id="node30" class="node">
<title>n0x55d22c70ec70</title>
<ellipse fill="none" stroke="black" cx="186.1" cy="-1210" rx="28.7" ry="18"/>
<text text-anchor="middle" x="186.1" y="-1206.3" font-family="Times,serif" font-size="14.00">2023</text>
</g>
<!-- n0x55d22c6f24a0&#45;&gt;n0x55d22c70ec70 -->
<g id="edge29" class="edge">
<title>n0x55d22c6f24a0&#45;&gt;n0x55d22c70ec70</title>
<path fill="none" stroke="black" d="M46.37,-908.06C53.7,-957.7 79.89,-1098.47 151,-1188 152.25,-1189.57 153.64,-1191.07 155.13,-1192.48"/>
<polygon fill="black" stroke="black" points="153.17,-1195.39 163.17,-1198.88 157.53,-1189.92 153.17,-1195.39"/>
<text text-anchor="middle" x="110.5" y="-1163.8" font-family="Times,serif" font-size="14.00">year</text>
</g>
<!-- n0x55d22c6ef140 -->
<g id="node3" class="node">
<title>n0x55d22c6ef140</title>
<ellipse fill="none" stroke="black" cx="315.39" cy="-104" rx="27" ry="18"/>
<text text-anchor="middle" x="315.39" y="-100.3" font-family="Times,serif" font-size="14.00">{...}</text>
</g>
<!-- n0x55d22c6efcf0&#45;&gt;n0x55d22c6ef140 -->
<g id="edge3" class="edge">
<title>n0x55d22c6efcf0&#45;&gt;n0x55d22c6ef140</title>
<path fill="none" stroke="black" d="M188.17,-522.91C192.67,-452.55 211.92,-197.91 258.19,-134 263.96,-126.04 272.49,-119.99 281.18,-115.49"/>
<polygon fill="black" stroke="black" points="282.91,-118.54 290.54,-111.19 279.99,-112.18 282.91,-118.54"/>
</g>
<!-- n0x55d22c712f00 -->
<g id="node6" class="node">
<title>n0x55d22c712f00</title>
<ellipse fill="none" stroke="black" cx="315.39" cy="-494" rx="27" ry="18"/>
<text text-anchor="middle" x="315.39" y="-490.3" font-family="Times,serif" font-size="14.00">{...}</text>
</g>
<!-- n0x55d22c6efcf0&#45;&gt;n0x55d22c712f00 -->
<g id="edge12" class="edge">
<title>n0x55d22c6efcf0&#45;&gt;n0x55d22c712f00</title>
<path fill="none" stroke="black" d="M210.15,-532.49C230.24,-525.07 259.61,-514.23 282.05,-505.94"/>
<polygon fill="black" stroke="black" points="283.34,-509.2 291.51,-502.45 280.92,-502.63 283.34,-509.2"/>
</g>
<!-- n0x55d22c6f1c50 -->
<g id="node15" class="node">
<title>n0x55d22c6f1c50</title>
<ellipse fill="none" stroke="black" cx="315.39" cy="-643" rx="27" ry="18"/>
<text text-anchor="middle" x="315.39" y="-639.3" font-family="Times,serif" font-size="14.00">{...}</text>
</g>
<!-- n0x55d22c6efcf0&#45;&gt;n0x55d22c6f1c50 -->
<g id="edge19" class="edge">
<title>n0x55d22c6efcf0&#45;&gt;n0x55d22c6f1c50</title>
<path fill="none" stroke="black" d="M206.52,-552.89C211.4,-556.05 216.56,-559.54 221.19,-563 245.94,-581.47 272.51,-604.65 290.93,-621.29"/>
<polygon fill="black" stroke="black" points="289.03,-624.29 298.78,-628.44 293.74,-619.12 289.03,-624.29"/>
</g>
<!-- n0x55d22c6ef3b0 -->
<g id="node4" class="node">
<title>n0x55d22c6ef3b0</title>
<ellipse fill="none" stroke="black" cx="540.23" cy="-50" rx="27.1" ry="18"/>
<text text-anchor="middle" x="540.23" y="-46.3" font-family="Times,serif" font-size="14.00">&quot;all&quot;</text>
</g>
<!-- n0x55d22c6ef140&#45;&gt;n0x55d22c6ef3b0 -->
<g id="edge1" class="edge">
<title>n0x55d22c6ef140&#45;&gt;n0x55d22c6ef3b0</title>
<path fill="none" stroke="black" d="M340.75,-97.63C355.22,-93.89 373.93,-89.09 390.58,-85 429.39,-75.46 474.03,-65.02 504.18,-58.05"/>
<polygon fill="black" stroke="black" points="505.25,-61.39 514.21,-55.74 503.68,-54.57 505.25,-61.39"/>
<text text-anchor="middle" x="430.08" y="-88.8" font-family="Times,serif" font-size="14.00">aboutChapters</text>
</g>
<!-- n0x55d22c716b00 -->
<g id="node5" class="node">
<title>n0x55d22c716b00</title>
<ellipse fill="none" stroke="black" cx="540.23" cy="-104" rx="39.79" ry="18"/>
<text text-anchor="middle" x="540.23" y="-100.3" font-family="Times,serif" font-size="14.00">&quot;Exam&quot;</text>
</g>
<!-- n0x55d22c6ef140&#45;&gt;n0x55d22c716b00 -->
<g id="edge2" class="edge">
<title>n0x55d22c6ef140&#45;&gt;n0x55d22c716b00</title>
<path fill="none" stroke="black" d="M342.83,-104C379.09,-104 444.91,-104 490.29,-104"/>
<polygon fill="black" stroke="black" points="490.5,-107.5 500.5,-104 490.5,-100.5 490.5,-107.5"/>
<text text-anchor="middle" x="430.08" y="-107.8" font-family="Times,serif" font-size="14.00">name</text>
</g>
<!-- n0x55d22c718de0 -->
<g id="node7" class="node">
<title>n0x55d22c718de0</title>
<ellipse fill="none" stroke="black" cx="540.23" cy="-334" rx="27" ry="18"/>
<text text-anchor="middle" x="540.23" y="-330.3" font-family="Times,serif" font-size="14.00">[...]</text>
</g>
<!-- n0x55d22c712f00&#45;&gt;n0x55d22c718de0 -->
<g id="edge10" class="edge">
<title>n0x55d22c712f00&#45;&gt;n0x55d22c718de0</title>
<path fill="none" stroke="black" d="M331.8,-479.09C360.54,-451.87 425.07,-393.52 487.58,-356 493.59,-352.39 500.3,-349.08 506.84,-346.17"/>
<polygon fill="black" stroke="black" points="508.34,-349.34 516.2,-342.23 505.62,-342.89 508.34,-349.34"/>
<text text-anchor="middle" x="430.08" y="-429.8" font-family="Times,serif" font-size="14.00">aboutChapters</text>
</g>
<!-- n0x55d22c70f720 -->
<g id="node14" class="node">
<title>n0x55d22c70f720</title>
<ellipse fill="none" stroke="black" cx="540.23" cy="-494" rx="52.79" ry="18"/>
<text text-anchor="middle" x="540.23" y="-490.3" font-family="Times,serif" font-size="14.00">&quot;TP noté 2&quot;</text>
</g>
<!-- n0x55d22c712f00&#45;&gt;n0x55d22c70f720 -->
<g id="edge11" class="edge">
<title>n0x55d22c712f00&#45;&gt;n0x55d22c70f720</title>
<path fill="none" stroke="black" d="M342.83,-494C375.77,-494 433.11,-494 477.36,-494"/>
<polygon fill="black" stroke="black" points="477.45,-497.5 487.45,-494 477.45,-490.5 477.45,-497.5"/>
<text text-anchor="middle" x="430.08" y="-497.8" font-family="Times,serif" font-size="14.00">name</text>
</g>
<!-- n0x55d22c6eeb60 -->
<g id="node8" class="node">
<title>n0x55d22c6eeb60</title>
<ellipse fill="none" stroke="black" cx="656.87" cy="-172" rx="27" ry="18"/>
<text text-anchor="middle" x="656.87" y="-168.3" font-family="Times,serif" font-size="14.00">5</text>
</g>
<!-- n0x55d22c718de0&#45;&gt;n0x55d22c6eeb60 -->
<g id="edge4" class="edge">
<title>n0x55d22c718de0&#45;&gt;n0x55d22c6eeb60</title>
<path fill="none" stroke="black" d="M550.93,-317.11C566.32,-290.85 597.86,-239.1 629.87,-199 631.12,-197.44 632.45,-195.86 633.81,-194.29"/>
<polygon fill="black" stroke="black" points="636.61,-196.42 640.78,-186.68 631.45,-191.69 636.61,-196.42"/>
</g>
<!-- n0x55d22c6ee650 -->
<g id="node9" class="node">
<title>n0x55d22c6ee650</title>
<ellipse fill="none" stroke="black" cx="656.87" cy="-226" rx="27" ry="18"/>
<text text-anchor="middle" x="656.87" y="-222.3" font-family="Times,serif" font-size="14.00">4</text>
</g>
<!-- n0x55d22c718de0&#45;&gt;n0x55d22c6ee650 -->
<g id="edge5" class="edge">
<title>n0x55d22c718de0&#45;&gt;n0x55d22c6ee650</title>
<path fill="none" stroke="black" d="M556.69,-319.43C576.26,-301 610.15,-269.07 632.79,-247.74"/>
<polygon fill="black" stroke="black" points="635.41,-250.08 640.29,-240.68 630.61,-244.99 635.41,-250.08"/>
</g>
<!-- n0x55d22c6ee630 -->
<g id="node10" class="node">
<title>n0x55d22c6ee630</title>
<ellipse fill="none" stroke="black" cx="656.87" cy="-280" rx="27" ry="18"/>
<text text-anchor="middle" x="656.87" y="-276.3" font-family="Times,serif" font-size="14.00">3</text>
</g>
<!-- n0x55d22c718de0&#45;&gt;n0x55d22c6ee630 -->
<g id="edge6" class="edge">
<title>n0x55d22c718de0&#45;&gt;n0x55d22c6ee630</title>
<path fill="none" stroke="black" d="M562.79,-323.84C580.41,-315.55 605.52,-303.72 625.23,-294.44"/>
<polygon fill="black" stroke="black" points="626.85,-297.54 634.41,-290.11 623.87,-291.21 626.85,-297.54"/>
</g>
<!-- n0x55d22c70f760 -->
<g id="node11" class="node">
<title>n0x55d22c70f760</title>
<ellipse fill="none" stroke="black" cx="656.87" cy="-334" rx="27" ry="18"/>
<text text-anchor="middle" x="656.87" y="-330.3" font-family="Times,serif" font-size="14.00">2</text>
</g>
<!-- n0x55d22c718de0&#45;&gt;n0x55d22c70f760 -->
<g id="edge7" class="edge">
<title>n0x55d22c718de0&#45;&gt;n0x55d22c70f760</title>
<path fill="none" stroke="black" d="M567.24,-334C582.67,-334 602.46,-334 619.43,-334"/>
<polygon fill="black" stroke="black" points="619.57,-337.5 629.57,-334 619.57,-330.5 619.57,-337.5"/>
</g>
<!-- n0x55d22c70f780 -->
<g id="node12" class="node">
<title>n0x55d22c70f780</title>
<ellipse fill="none" stroke="black" cx="656.87" cy="-388" rx="27" ry="18"/>
<text text-anchor="middle" x="656.87" y="-384.3" font-family="Times,serif" font-size="14.00">1</text>
</g>
<!-- n0x55d22c718de0&#45;&gt;n0x55d22c70f780 -->
<g id="edge8" class="edge">
<title>n0x55d22c718de0&#45;&gt;n0x55d22c70f780</title>
<path fill="none" stroke="black" d="M563.74,-343.2C572.85,-347.03 583.42,-351.59 592.87,-356 603.86,-361.12 615.74,-367.05 626.2,-372.41"/>
<polygon fill="black" stroke="black" points="624.84,-375.65 635.33,-377.13 628.05,-369.43 624.84,-375.65"/>
</g>
<!-- n0x55d22c712f50 -->
<g id="node13" class="node">
<title>n0x55d22c712f50</title>
<ellipse fill="none" stroke="black" cx="656.87" cy="-442" rx="27" ry="18"/>
<text text-anchor="middle" x="656.87" y="-438.3" font-family="Times,serif" font-size="14.00">0</text>
</g>
<!-- n0x55d22c718de0&#45;&gt;n0x55d22c712f50 -->
<g id="edge9" class="edge">
<title>n0x55d22c718de0&#45;&gt;n0x55d22c712f50</title>
<path fill="none" stroke="black" d="M565.29,-340.8C574.62,-344.27 584.94,-349.23 592.87,-356 616.41,-376.1 610.82,-390.61 629.87,-415 631.11,-416.58 632.42,-418.16 633.77,-419.74"/>
<polygon fill="black" stroke="black" points="631.4,-422.33 640.72,-427.36 636.57,-417.61 631.4,-422.33"/>
</g>
<!-- n0x55d22c6f0b60 -->
<g id="node16" class="node">
<title>n0x55d22c6f0b60</title>
<ellipse fill="none" stroke="black" cx="540.23" cy="-643" rx="27" ry="18"/>
<text text-anchor="middle" x="540.23" y="-639.3" font-family="Times,serif" font-size="14.00">[...]</text>
</g>
<!-- n0x55d22c6f1c50&#45;&gt;n0x55d22c6f0b60 -->
<g id="edge17" class="edge">
<title>n0x55d22c6f1c50&#45;&gt;n0x55d22c6f0b60</title>
<path fill="none" stroke="black" d="M342.83,-643C382.64,-643 458.09,-643 502.99,-643"/>
<polygon fill="black" stroke="black" points="503.17,-646.5 513.17,-643 503.17,-639.5 503.17,-646.5"/>
<text text-anchor="middle" x="430.08" y="-646.8" font-family="Times,serif" font-size="14.00">aboutChapters</text>
</g>
<!-- n0x55d22c6ed580 -->
<g id="node21" class="node">
<title>n0x55d22c6ed580</title>
<ellipse fill="none" stroke="black" cx="540.23" cy="-776" rx="52.79" ry="18"/>
<text text-anchor="middle" x="540.23" y="-772.3" font-family="Times,serif" font-size="14.00">&quot;TP noté 1&quot;</text>
</g>
<!-- n0x55d22c6f1c50&#45;&gt;n0x55d22c6ed580 -->
<g id="edge18" class="edge">
<title>n0x55d22c6f1c50&#45;&gt;n0x55d22c6ed580</title>
<path fill="none" stroke="black" d="M334.25,-656.06C364.71,-678 429.11,-722.89 487.58,-754 490.29,-755.44 493.12,-756.86 495.99,-758.24"/>
<polygon fill="black" stroke="black" points="494.67,-761.49 505.22,-762.5 497.61,-755.14 494.67,-761.49"/>
<text text-anchor="middle" x="430.08" y="-746.8" font-family="Times,serif" font-size="14.00">name</text>
</g>
<!-- n0x55d22c6ee8b0 -->
<g id="node17" class="node">
<title>n0x55d22c6ee8b0</title>
<ellipse fill="none" stroke="black" cx="656.87" cy="-562" rx="27" ry="18"/>
<text text-anchor="middle" x="656.87" y="-558.3" font-family="Times,serif" font-size="14.00">5</text>
</g>
<!-- n0x55d22c6f0b60&#45;&gt;n0x55d22c6ee8b0 -->
<g id="edge13" class="edge">
<title>n0x55d22c6f0b60&#45;&gt;n0x55d22c6ee8b0</title>
<path fill="none" stroke="black" d="M559.39,-630.17C578.26,-616.83 607.97,-595.84 629.44,-580.68"/>
<polygon fill="black" stroke="black" points="631.65,-583.4 637.79,-574.77 627.61,-577.69 631.65,-583.4"/>
</g>
<!-- n0x55d22c6ee8d0 -->
<g id="node18" class="node">
<title>n0x55d22c6ee8d0</title>
<ellipse fill="none" stroke="black" cx="656.87" cy="-616" rx="27" ry="18"/>
<text text-anchor="middle" x="656.87" y="-612.3" font-family="Times,serif" font-size="14.00">2</text>
</g>
<!-- n0x55d22c6f0b60&#45;&gt;n0x55d22c6ee8d0 -->
<g id="edge14" class="edge">
<title>n0x55d22c6f0b60&#45;&gt;n0x55d22c6ee8d0</title>
<path fill="none" stroke="black" d="M565.82,-637.21C581.96,-633.41 603.3,-628.38 621.15,-624.18"/>
<polygon fill="black" stroke="black" points="621.99,-627.58 630.93,-621.88 620.39,-620.76 621.99,-627.58"/>
</g>
<!-- n0x55d22c6ee890 -->
<g id="node19" class="node">
<title>n0x55d22c6ee890</title>
<ellipse fill="none" stroke="black" cx="656.87" cy="-670" rx="27" ry="18"/>
<text text-anchor="middle" x="656.87" y="-666.3" font-family="Times,serif" font-size="14.00">1</text>
</g>
<!-- n0x55d22c6f0b60&#45;&gt;n0x55d22c6ee890 -->
<g id="edge15" class="edge">
<title>n0x55d22c6f0b60&#45;&gt;n0x55d22c6ee890</title>
<path fill="none" stroke="black" d="M565.82,-648.79C581.96,-652.59 603.3,-657.62 621.15,-661.82"/>
<polygon fill="black" stroke="black" points="620.39,-665.24 630.93,-664.12 621.99,-658.42 620.39,-665.24"/>
</g>
<!-- n0x55d22c6ed5c0 -->
<g id="node20" class="node">
<title>n0x55d22c6ed5c0</title>
<ellipse fill="none" stroke="black" cx="656.87" cy="-724" rx="27" ry="18"/>
<text text-anchor="middle" x="656.87" y="-720.3" font-family="Times,serif" font-size="14.00">0</text>
</g>
<!-- n0x55d22c6f0b60&#45;&gt;n0x55d22c6ed5c0 -->
<g id="edge16" class="edge">
<title>n0x55d22c6f0b60&#45;&gt;n0x55d22c6ed5c0</title>
<path fill="none" stroke="black" d="M564.73,-651C573.88,-654.62 584.22,-659.36 592.87,-665 601.64,-670.71 619.59,-687.75 634.1,-702.06"/>
<polygon fill="black" stroke="black" points="631.74,-704.65 641.3,-709.22 636.67,-699.69 631.74,-704.65"/>
</g>
<!-- n0x55d22c6f7700 -->
<g id="node25" class="node">
<title>n0x55d22c6f7700</title>
<ellipse fill="none" stroke="black" cx="315.39" cy="-942" rx="46.59" ry="18"/>
<text text-anchor="middle" x="315.39" y="-938.3" font-family="Times,serif" font-size="14.00">&quot;Youssef&quot;</text>
</g>
<!-- n0x55d22c6f1150&#45;&gt;n0x55d22c6f7700 -->
<g id="edge23" class="edge">
<title>n0x55d22c6f1150&#45;&gt;n0x55d22c6f7700</title>
<path fill="none" stroke="black" d="M206.53,-1011.13C211.41,-1007.97 216.57,-1004.46 221.19,-1001 238.59,-987.96 240.01,-980.92 258.19,-969 263.18,-965.73 268.62,-962.62 274.09,-959.74"/>
<polygon fill="black" stroke="black" points="275.88,-962.76 283.26,-955.15 272.75,-956.5 275.88,-962.76"/>
</g>
<!-- n0x55d22c6ef9a0 -->
<g id="node26" class="node">
<title>n0x55d22c6ef9a0</title>
<ellipse fill="none" stroke="black" cx="315.39" cy="-996" rx="40.89" ry="18"/>
<text text-anchor="middle" x="315.39" y="-992.3" font-family="Times,serif" font-size="14.00">&quot;Victor&quot;</text>
</g>
<!-- n0x55d22c6f1150&#45;&gt;n0x55d22c6ef9a0 -->
<g id="edge24" class="edge">
<title>n0x55d22c6f1150&#45;&gt;n0x55d22c6ef9a0</title>
<path fill="none" stroke="black" d="M211.94,-1017.73C227.89,-1014.35 249.09,-1009.85 268.06,-1005.83"/>
<polygon fill="black" stroke="black" points="268.98,-1009.21 278.04,-1003.71 267.53,-1002.36 268.98,-1009.21"/>
</g>
<!-- n0x55d22c70ec30 -->
<g id="node27" class="node">
<title>n0x55d22c70ec30</title>
<ellipse fill="none" stroke="black" cx="315.39" cy="-1050" rx="57.39" ry="18"/>
<text text-anchor="middle" x="315.39" y="-1046.3" font-family="Times,serif" font-size="14.00">&quot;Christophe&quot;</text>
</g>
<!-- n0x55d22c6f1150&#45;&gt;n0x55d22c70ec30 -->
<g id="edge25" class="edge">
<title>n0x55d22c6f1150&#45;&gt;n0x55d22c70ec30</title>
<path fill="none" stroke="black" d="M211.94,-1028.27C225,-1031.04 241.59,-1034.56 257.59,-1037.95"/>
<polygon fill="black" stroke="black" points="256.94,-1041.39 267.45,-1040.04 258.39,-1034.54 256.94,-1041.39"/>
</g>
<!-- n0x55d22c705ea0 -->
<g id="node28" class="node">
<title>n0x55d22c705ea0</title>
<ellipse fill="none" stroke="black" cx="315.39" cy="-1104" rx="48.99" ry="18"/>
<text text-anchor="middle" x="315.39" y="-1100.3" font-family="Times,serif" font-size="14.00">&quot;Clément&quot;</text>
</g>
<!-- n0x55d22c6f1150&#45;&gt;n0x55d22c705ea0 -->
<g id="edge26" class="edge">
<title>n0x55d22c6f1150&#45;&gt;n0x55d22c705ea0</title>
<path fill="none" stroke="black" d="M206.53,-1034.87C211.41,-1038.03 216.57,-1041.54 221.19,-1045 238.59,-1058.04 240.01,-1065.08 258.19,-1077 263.06,-1080.19 268.37,-1083.24 273.71,-1086.06"/>
<polygon fill="black" stroke="black" points="272.16,-1089.19 282.67,-1090.57 275.31,-1082.94 272.16,-1089.19"/>
</g>
<!-- n0x55d22c709060 -->
<g id="node29" class="node">
<title>n0x55d22c709060</title>
<ellipse fill="none" stroke="black" cx="315.39" cy="-1158" rx="41.69" ry="18"/>
<text text-anchor="middle" x="315.39" y="-1154.3" font-family="Times,serif" font-size="14.00">&quot;Céline&quot;</text>
</g>
<!-- n0x55d22c6f1150&#45;&gt;n0x55d22c709060 -->
<g id="edge27" class="edge">
<title>n0x55d22c6f1150&#45;&gt;n0x55d22c709060</title>
<path fill="none" stroke="black" d="M208.12,-1033.8C212.86,-1036.93 217.55,-1040.7 221.19,-1045 248.06,-1076.77 229.39,-1100.97 258.19,-1131 262.37,-1135.35 267.39,-1139.09 272.69,-1142.27"/>
<polygon fill="black" stroke="black" points="271.31,-1145.5 281.78,-1147.12 274.6,-1139.33 271.31,-1145.5"/>
</g>
</g>
</svg>
